<svg xmlns="http://www.w3.org/2000/svg" viewBox="0 0 240 240" fill="none"><path d="M38 208C78 171 111 119 142 35" stroke="#275C3B" stroke-width="4" stroke-linecap="round"/><path d="M79 165c-23-4-38-18-43-38 22-2 39 11 43 38ZM101 132c-21-7-32-23-32-43 21 3 34 18 32 43ZM121 97c-18-9-25-25-21-42 18 5 27 21 21 42ZM67 177c20-1 36-11 46-28-21-4-38 5-46 28ZM93 143c19 1 35-8 45-24-20-5-37 3-45 24ZM118 106c17 3 31-4 40-18-17-5-32 1-40 18Z" fill="#A9BE83" stroke="#275C3B" stroke-width="3" stroke-linejoin="round"/><circle cx="143" cy="35" r="5" fill="#F56F7D"/></svg>
